<svg xmlns="http://www.w3.org/2000/svg" width="12" height="12" viewBox="0 0 40 40"><g fill="#FFF" fill-rule="nonzero"><path d="m18.088 15.732-6.91-6.91 2.155-2.155L6.667 0 0 6.667l6.667 6.666 2.155-2.155 6.493 6.494zM31.567 23.233c-.515.06-1.037.1-1.567.1-.508 0-1.013-.03-1.52-.088l-6.068 7.498 7.53 7.53a5.892 5.892 0 0 0 8.333 0 5.892 5.892 0 0 0 0-8.333l-6.708-6.707Z" style="opacity: 0.6;"/><path d="m33.785 11.285-5.07-5.07L34.062.868A9.948 9.948 0 0 0 30 0c-5.523 0-10 4.477-10 10 0 .99.148 1.943.417 2.847L2.435 27.397a7.226 7.226 0 0 0-2.432 5.176A7.225 7.225 0 0 0 2.11 37.89 7.148 7.148 0 0 0 7.202 40a7.208 7.208 0 0 0 5.401-2.435l14.55-17.982A9.973 9.973 0 0 0 30 20c5.523 0 10-4.477 10-10 0-1.448-.315-2.82-.868-4.063l-5.347 5.348Z"/></g></svg>