<svg xmlns="http://www.w3.org/2000/svg" width="12" height="12" viewBox="0 0 40 44"><g fill="#FFF" fill-rule="nonzero"><path d="M40 40h-3.636V3.636H5.454V0h32.728C39.185 0 40 .815 40 1.818V40Z" style="opacity: 0.6;"/><path d="M30.91 7.273H1.817A1.819 1.819 0 0 0 0 9.09v32.727c0 1.004.815 1.818 1.818 1.818H30.91a1.819 1.819 0 0 0 1.818-1.818V9.091a1.819 1.819 0 0 0-1.818-1.818ZM18.181 34.545H7.272V30.91h10.91v3.636Zm7.273-7.272H7.273v-3.637h18.182v3.637Zm0-7.273H7.273v-3.636h18.182V20Z"/></g></svg>