<svg xmlns="http://www.w3.org/2000/svg" width="12" height="12" viewBox="0 0 42 42"><g fill="#FFF" fill-rule="nonzero"><path d="M12.25 17.5h-3.5V1.75C8.75.782 9.532 0 10.5 0h21c.968 0 1.75.782 1.75 1.75v10.5h-3.5V3.5h-17.5v14Z" style="opacity: 0.6;"/><path d="M40.25 14H24.5c-.968 0-1.75.782-1.75 1.75V38.5h-3.5V22.75c0-.968-.782-1.75-1.75-1.75H1.75C.782 21 0 21.782 0 22.75v17.5C0 41.218.782 42 1.75 42h38.5c.968 0 1.75-.782 1.75-1.75v-24.5c0-.968-.782-1.75-1.75-1.75Zm-28 22.75H7v-3.5h5.25v3.5Zm0-7H7v-3.5h5.25v3.5Zm22.75 7h-5.25v-3.5H35v3.5Zm0-7h-5.25v-3.5H35v3.5Zm0-7h-5.25v-3.5H35v3.5Z"/></g></svg>